<?xml version="1.0" encoding="UTF-8" ?>
<!DOCTYPE svg PUBLIC "-//W3C//DTD SVG 1.1//EN" "http://www.w3.org/Graphics/SVG/1.1/DTD/svg11.dtd">
<svg width="1024pt" height="1024pt" viewBox="0 0 1024 1024" version="1.1" xmlns="http://www.w3.org/2000/svg">
<g id="#00adefff">
<path fill="#00adef" opacity="1.00" d=" M 1015.41 0.00 L 1015.92 0.00 C 1016.15 19.98 1015.95 39.97 1016.02 59.95 C 1016.02 201.04 1016.03 342.12 1016.02 483.21 C 832.48 484.75 648.95 486.16 465.42 487.61 C 465.41 351.86 465.41 216.11 465.41 80.36 C 557.28 67.03 649.12 53.55 740.97 40.18 C 832.44 26.74 923.97 13.63 1015.41 0.00 Z" />
<path fill="#00adef" opacity="1.00" d=" M 0.00 144.31 C 138.43 125.52 276.85 106.66 415.26 87.76 C 415.33 221.28 415.39 354.80 415.44 488.33 C 295.29 488.99 175.13 489.76 54.97 490.37 C 36.65 490.32 18.31 490.88 0.00 490.45 L 0.00 144.31 Z" />
<path fill="#00adef" opacity="1.00" d=" M 0.00 532.36 C 2.91 531.45 5.97 531.83 8.96 531.84 C 144.30 532.63 279.64 533.59 414.98 534.44 C 415.28 668.09 415.23 801.73 415.38 935.37 C 276.93 916.27 138.46 897.31 0.00 878.22 L 0.00 532.36 Z" />
<path fill="#00adef" opacity="1.00" d=" M 464.59 537.42 C 648.42 537.55 832.26 537.96 1016.09 538.27 C 1016.17 698.61 1016.03 858.95 1016.01 1019.29 C 832.48 993.33 648.95 967.42 465.41 941.58 C 465.11 806.86 464.96 672.14 464.59 537.42 Z" />
</g>
</svg>
